<?xml version="1.0" encoding="UTF-8"?><svg xmlns="http://www.w3.org/2000/svg" xmlns:xlink="http://www.w3.org/1999/xlink" viewBox="0 0 183.1 44.9"><defs><style>.cls-1,.cls-2{fill:none;}.cls-3{mix-blend-mode:luminosity;}.cls-4{clip-path:url(#clippath);}.cls-5,.cls-6{fill:#fff;}.cls-7,.cls-8{fill:#7a9a3d;}.cls-2{clip-rule:evenodd;}.cls-9{clip-path:url(#clippath-1);}.cls-10{fill:#4d8d40;}.cls-10,.cls-8,.cls-11,.cls-6,.cls-12{fill-rule:evenodd;}.cls-11{fill:#057681;}.cls-12{fill:#015071;}.cls-13{isolation:isolate;}</style><clipPath id="clippath"><rect class="cls-1" x="-8.46" y="-4.23" width="183.72" height="53.66"/></clipPath><clipPath id="clippath-1"><path class="cls-2" d="M44.68,22.46c0,11.62-9.42,21.04-21.04,21.04S2.59,34.08,2.59,22.46,12.02,1.41,23.64,1.41s21.04,9.42,21.04,21.04"/></clipPath></defs><g class="cls-13"><g id="Layer_1"><g><g class="cls-3"><g class="cls-4"><path class="cls-11" d="M88.51,22.59c0,11.62-9.42,21.04-21.04,21.04s-21.04-9.42-21.04-21.04S55.85,1.55,67.47,1.55s21.04,9.42,21.04,21.04"/><path class="cls-10" d="M131.73,22.59c0,11.62-9.42,21.04-21.04,21.04s-21.04-9.42-21.04-21.04S99.07,1.55,110.69,1.55s21.04,9.42,21.04,21.04"/><path class="cls-8" d="M175.25,22.59c0,11.62-9.42,21.04-21.04,21.04s-21.04-9.42-21.04-21.04S142.59,1.55,154.21,1.55s21.04,9.42,21.04,21.04"/><path class="cls-5" d="M66.82,34.96h-9.45V10.72h9.45c7.62,0,12.88,5.23,12.88,12.05v.07c0,6.82-5.26,12.12-12.88,12.12m7.31-12.12c0-4.3-2.94-7.31-7.31-7.31h-4.12v14.62h4.12c4.36,0,7.31-2.94,7.31-7.24v-.07Z"/><path class="cls-5" d="M110.66,34.96h-9.46V10.72h9.46c7.62,0,12.88,5.23,12.88,12.05v.07c0,6.82-5.26,12.12-12.88,12.12m7.31-12.12c0-4.3-2.94-7.31-7.31-7.31h-4.12v14.62h4.12c4.36,0,7.31-2.94,7.31-7.24v-.07Z"/><rect class="cls-5" x="150.8" y="10.72" width="5.33" height="24.24"/><path class="cls-12" d="M44.68,22.46c0,11.62-9.42,21.04-21.04,21.04S2.59,34.08,2.59,22.46,12.02,1.41,23.64,1.41s21.04,9.42,21.04,21.04"/><g class="cls-9"><path class="cls-6" d="M19.34,31.1c-.11-.62-.28-1.23-.49-1.81l3.17-3.07-1.07-1.85-4.25,1.21c-.41-.47-.85-.92-1.32-1.32l1.22-4.25-1.86-1.07-3.07,3.17c-.58-.21-1.19-.37-1.81-.48l-1.07-4.28h-2.14l-1.07,4.28c-.62,.11-1.23,.28-1.81,.48l-3.07-3.17-1.86,1.07L.07,24.26c-.48,.41-.92,.85-1.32,1.32l-4.25-1.21-1.07,1.85,3.17,3.07c-.21,.58-.37,1.19-.49,1.81l-4.28,1.07v2.14l4.28,1.07c.12,.62,.28,1.23,.48,1.81l-3.17,3.07,1.07,1.86,4.25-1.22,1.32,1.32-1.22,4.25,1.86,1.07,3.07-3.17c.58,.2,1.19,.37,1.81,.48l1.07,4.29h2.14l1.07-4.29c.62-.11,1.22-.28,1.81-.48l3.07,3.17,1.86-1.07-1.22-4.25s.92-.85,1.32-1.33l4.25,1.22,1.07-1.86-3.17-3.07c.21-.58,.37-1.19,.49-1.81l4.28-1.07v-2.14l-4.28-1.07Zm-5.16,2.14c0,3.56-2.89,6.45-6.45,6.45s-6.45-2.89-6.45-6.45,2.89-6.45,6.45-6.45,6.45,2.89,6.45,6.45"/><path class="cls-5" d="M9.03,49.43h-2.6l-1.08-4.33c-.5-.1-1-.23-1.49-.4l-3.1,3.21-2.25-1.3,1.24-4.3-1.08-1.08-4.3,1.23-1.3-2.25,3.21-3.1c-.16-.48-.3-.99-.4-1.49l-4.32-1.08v-2.6l4.32-1.08c.1-.5,.24-1.01,.4-1.49l-3.2-3.1,1.3-2.25,4.29,1.23c.34-.38,.7-.75,1.09-1.09l-1.23-4.29,2.25-1.3,3.1,3.2c.49-.16,.99-.3,1.49-.4l1.08-4.32h2.6l1.08,4.32c.51,.1,1.01,.23,1.49,.4l3.1-3.2,2.25,1.3-1.23,4.29c.38,.34,.75,.71,1.09,1.09l4.29-1.23,1.3,2.25-3.2,3.1c.16,.49,.3,.99,.4,1.49l4.32,1.08v2.6l-4.32,1.08c-.1,.51-.23,1.01-.4,1.49l3.2,3.1-1.3,2.25-4.29-1.23c-.34,.37-.85,.86-1.09,1.08l1.23,4.3-2.25,1.3-3.1-3.21c-.49,.17-.99,.3-1.49,.4l-1.08,4.33Zm-2.14-.58h1.69l1.06-4.25,.18-.03c.6-.11,1.19-.27,1.76-.47l.18-.06,3.04,3.15,1.46-.84-1.2-4.2,.13-.12s.91-.84,1.3-1.3l.12-.14,4.21,1.21,.84-1.46-3.14-3.04,.06-.18c.2-.57,.36-1.16,.47-1.76l.04-.18,4.24-1.06v-1.69l-4.24-1.06-.03-.19c-.11-.6-.27-1.19-.47-1.76l-.06-.18,3.14-3.04-.84-1.46-4.21,1.2-.12-.14c-.39-.46-.83-.9-1.29-1.29l-.14-.12,1.2-4.21-1.46-.84-3.04,3.15-.18-.06c-.57-.2-1.17-.36-1.77-.47l-.19-.03-1.06-4.24h-1.69l-1.06,4.24-.18,.03c-.6,.11-1.2,.27-1.77,.47l-.18,.06-3.04-3.15-1.46,.84L.4,24.36l-.14,.12c-.47,.4-.9,.83-1.29,1.29l-.12,.14-4.21-1.2-.84,1.46,3.14,3.04-.06,.18c-.2,.57-.36,1.16-.47,1.76l-.03,.18-4.24,1.06v1.69l4.25,1.06,.03,.18c.11,.6,.27,1.19,.47,1.76l.06,.18-3.15,3.04,.84,1.46,4.19-1.2,1.57,1.57-1.2,4.2,1.46,.84,3.04-3.15,.18,.06c.57,.2,1.16,.36,1.76,.47l.19,.03,1.06,4.25Zm.84-8.86c-3.72,0-6.74-3.03-6.74-6.74s3.03-6.74,6.74-6.74,6.75,3.03,6.75,6.74-3.03,6.74-6.75,6.74m0-12.91c-3.4,0-6.16,2.76-6.16,6.16s2.76,6.16,6.16,6.16,6.16-2.77,6.16-6.16-2.76-6.16-6.16-6.16"/><path class="cls-6" d="M41.19,20.99c0,4.86-3.94,8.79-8.79,8.79s-8.79-3.94-8.79-8.79,3.94-8.79,8.79-8.79,8.79,3.94,8.79,8.79"/><path class="cls-5" d="M32.4,30.07c-5.01,0-9.08-4.07-9.08-9.08s4.08-9.08,9.08-9.08,9.08,4.07,9.08,9.08-4.07,9.08-9.08,9.08m0-17.58c-4.69,0-8.5,3.81-8.5,8.5s3.81,8.5,8.5,8.5,8.5-3.81,8.5-8.5-3.81-8.5-8.5-8.5"/><polygon class="cls-6" points="33.77 12.26 33.01 9.23 31.79 9.23 31.04 12.26 30.55 12.14 31.4 8.74 33.4 8.74 34.25 12.14 33.77 12.26"/><polyline class="cls-6" points="34.01 12.2 33.21 8.99 31.6 8.99 30.79 12.2"/><polygon class="cls-6" points="23.55 22.84 20.15 21.99 20.15 19.99 23.55 19.14 23.67 19.62 20.64 20.38 20.64 21.6 23.67 22.35 23.55 22.84"/><polyline class="cls-6" points="23.61 19.38 20.4 20.19 20.4 21.79 23.61 22.6"/><polygon class="cls-6" points="41.28 22.84 41.16 22.35 44.18 21.6 44.18 20.38 41.16 19.62 41.28 19.14 44.68 19.99 44.68 21.99 41.28 22.84"/><polyline class="cls-6" points="41.22 22.6 44.43 21.79 44.43 20.19 41.22 19.38"/><polygon class="cls-6" points="39.95 16.12 39.53 15.86 41.17 13.21 40.32 12.33 37.62 13.9 37.37 13.47 40.4 11.71 41.79 13.14 39.95 16.12"/><polyline class="cls-6" points="39.74 15.99 41.48 13.17 40.36 12.02 37.5 13.68"/><polygon class="cls-6" points="40.4 30.26 37.37 28.5 37.62 28.07 40.32 29.63 41.17 28.76 39.53 26.11 39.95 25.85 41.79 28.82 40.4 30.26"/><polyline class="cls-6" points="37.5 28.28 40.36 29.94 41.48 28.79 39.74 25.98"/><polygon class="cls-6" points="24.89 15.85 23.04 12.87 24.43 11.44 27.47 13.2 27.22 13.63 24.52 12.06 23.67 12.94 25.31 15.58 24.89 15.85"/><polyline class="cls-6" points="27.34 13.41 24.48 11.75 23.36 12.9 25.1 15.72"/><polygon class="cls-6" points="24.44 30.26 23.04 28.82 24.89 25.85 25.31 26.11 23.67 28.76 24.52 29.63 27.22 28.07 27.47 28.5 24.44 30.26"/><polyline class="cls-6" points="25.1 25.98 23.36 28.79 24.48 29.94 27.34 28.28"/><polygon class="cls-6" points="33.4 33.24 31.4 33.24 30.55 29.84 31.04 29.72 31.79 32.74 33.01 32.74 33.77 29.72 34.25 29.84 33.4 33.24"/><polyline class="cls-6" points="30.79 29.78 31.6 32.99 33.2 32.99 34.01 29.78"/><path class="cls-12" d="M36.51,20.82c0,2.27-1.84,4.12-4.12,4.12s-4.11-1.84-4.11-4.12,1.84-4.11,4.11-4.11,4.12,1.84,4.12,4.11"/><path class="cls-5" d="M32.4,25.22c-2.43,0-4.4-1.98-4.4-4.41s1.98-4.4,4.4-4.4,4.41,1.98,4.41,4.4-1.98,4.41-4.41,4.41m0-8.23c-2.11,0-3.82,1.72-3.82,3.82s1.71,3.82,3.82,3.82,3.82-1.71,3.82-3.82-1.71-3.82-3.82-3.82"/><path class="cls-6" d="M19.82,6.47c0,4.13-3.35,7.47-7.47,7.47s-7.47-3.35-7.47-7.47S8.22-1.01,12.35-1.01s7.47,3.35,7.47,7.48"/><path class="cls-5" d="M12.35,14.23c-4.28,0-7.77-3.48-7.77-7.76S8.06-1.3,12.35-1.3s7.76,3.48,7.76,7.77-3.48,7.76-7.76,7.76M12.35-.71c-3.96,0-7.18,3.22-7.18,7.18s3.22,7.18,7.18,7.18,7.18-3.22,7.18-7.18S16.31-.71,12.35-.71"/><polygon class="cls-6" points="4.75 8.31 1.65 7.54 1.65 5.4 4.75 4.62 4.99 5.58 2.64 6.17 2.64 6.76 4.99 7.35 4.75 8.31"/><polyline class="cls-6" points="4.87 5.1 2.14 5.78 2.14 7.15 4.87 7.83"/><polygon class="cls-6" points="19.96 8.31 19.72 7.35 22.08 6.76 22.08 6.17 19.72 5.58 19.96 4.62 23.07 5.4 23.07 7.54 19.96 8.31"/><polyline class="cls-6" points="19.84 7.83 22.57 7.15 22.57 5.78 19.84 5.1"/><polygon class="cls-6" points="19 2.48 18.16 1.96 19.44 -.11 19.03 -.53 16.93 .69 16.43 -.17 19.2 -1.78 20.69 -.24 19 2.48"/><polyline class="cls-6" points="18.58 2.22 20.06 -.17 19.11 -1.16 16.68 .26"/><polygon class="cls-6" points="19.2 14.7 16.43 13.09 16.93 12.24 19.03 13.45 19.44 13.03 18.16 10.97 19 10.45 20.69 13.17 19.2 14.7"/><polyline class="cls-6" points="16.68 12.67 19.11 14.08 20.06 13.1 18.58 10.71"/><polygon class="cls-6" points="5.72 2.25 4.03 -.47 5.53 -2.01 9.67 .29 7.8 .45 5.7 -.76 5.28 -.34 6.56 1.73 5.72 2.25"/><polyline class="cls-6" points="8.05 .03 5.61 -1.39 4.66 -.41 6.14 1.99"/><polygon class="cls-6" points="5.53 14.7 4.03 13.17 5.72 10.45 6.56 10.97 5.28 13.03 5.7 13.45 7.8 12.24 8.29 13.09 5.53 14.7"/><polyline class="cls-6" points="6.14 10.71 4.66 13.1 5.61 14.08 8.05 12.67"/><polygon class="cls-6" points="13.42 17.17 11.28 17.17 10.5 14.06 11.46 13.82 12.05 16.18 12.64 16.18 13.23 13.82 14.19 14.06 13.42 17.17"/><polyline class="cls-6" points="10.98 13.94 11.66 16.67 13.03 16.67 13.71 13.94"/><path class="cls-12" d="M15.84,6.32c0,1.93-1.56,3.5-3.5,3.5s-3.5-1.57-3.5-3.5,1.57-3.5,3.5-3.5,3.5,1.57,3.5,3.5"/><path class="cls-5" d="M12.35,10.11c-2.09,0-3.79-1.7-3.79-3.79s1.7-3.79,3.79-3.79,3.79,1.7,3.79,3.79-1.7,3.79-3.79,3.79m0-6.99c-1.77,0-3.21,1.44-3.21,3.21s1.44,3.21,3.21,3.21,3.21-1.44,3.21-3.21-1.44-3.21-3.21-3.21"/></g></g></g><path class="cls-7" d="M173.93,6.22c0-.73,.18-1.41,.54-2.04,.36-.63,.86-1.13,1.5-1.51,.64-.37,1.33-.56,2.07-.56s1.45,.18,2.08,.55c.63,.37,1.13,.87,1.49,1.51,.36,.64,.54,1.32,.54,2.04s-.18,1.45-.55,2.09c-.37,.63-.87,1.13-1.51,1.49-.63,.36-1.32,.54-2.05,.54s-1.43-.19-2.07-.56c-.64-.37-1.14-.87-1.5-1.5-.36-.62-.54-1.31-.54-2.06m.76,0c0,.61,.15,1.18,.46,1.7,.3,.52,.71,.93,1.22,1.22,.51,.3,1.07,.44,1.67,.44s1.17-.15,1.7-.45c.52-.3,.93-.71,1.23-1.23,.3-.52,.45-1.08,.45-1.68s-.15-1.16-.45-1.67c-.3-.52-.71-.93-1.23-1.23-.52-.3-1.08-.45-1.69-.45s-1.16,.15-1.67,.45c-.52,.3-.93,.71-1.23,1.23-.3,.52-.45,1.08-.45,1.68m3.75-2.16c.4,0,.73,.11,.98,.33,.25,.22,.38,.51,.38,.87s-.11,.63-.33,.86c-.22,.23-.51,.36-.88,.39v.02c.16,.05,.3,.15,.44,.27,.13,.13,.31,.39,.54,.78l.52,.88h-.99l-.21-.39c-.18-.36-.34-.65-.5-.87-.16-.22-.29-.37-.41-.45-.12-.08-.28-.12-.48-.12h-.37v1.83h-.81V4.06h2.11Zm-.31,1.91c.26,0,.47-.05,.61-.16,.14-.11,.21-.27,.21-.47s-.07-.36-.22-.46c-.15-.11-.35-.16-.6-.16h-.99v1.25h.99Z"/></g></g></g></svg>